<?xml version="1.0" standalone="no"?>
<!DOCTYPE svg PUBLIC "-//W3C//DTD SVG 20010904//EN"
 "http://www.w3.org/TR/2001/REC-SVG-20010904/DTD/svg10.dtd">
<svg version="1.0" xmlns="http://www.w3.org/2000/svg"
 width="192.000000pt" height="205.000000pt" viewBox="0 0 192.000000 205.000000"
 preserveAspectRatio="xMidYMid meet">

<g transform="translate(0.000000,205.000000) scale(0.100000,-0.100000)"
fill="#000000" stroke="none">
<path d="M0 1025 l0 -1025 960 0 960 0 0 1025 0 1025 -960 0 -960 0 0 -1025z
m1038 125 c141 -214 261 -389 265 -390 5 0 7 143 5 318 -3 298 -4 320 -24 363
-23 48 -63 84 -104 92 -14 2 45 5 130 5 87 0 144 -3 130 -7 -45 -14 -71 -35
-93 -76 -21 -39 -22 -52 -27 -490 l-5 -450 -332 497 c-182 273 -337 499 -344
504 -7 4 -26 11 -43 15 -20 4 7 7 77 8 l108 1 257 -390z m-183 -67 l245 -368
0 -100 0 -100 -217 325 c-193 287 -218 322 -221 295 -2 -16 -2 -129 0 -250 3
-205 5 -223 26 -267 25 -51 59 -78 112 -89 19 -4 -44 -7 -140 -7 -108 0 -162
3 -141 8 44 10 81 39 106 81 18 31 20 55 23 306 l3 272 -25 38 c-23 34 -26 47
-26 130 0 51 2 93 5 93 3 0 115 -165 250 -367z"/>
</g>
</svg>
